<?xml version="1.0" encoding="UTF-8"?>
<!DOCTYPE svg PUBLIC "-//W3C//DTD SVG 1.1//EN" "http://www.w3.org/Graphics/SVG/1.1/DTD/svg11.dtd">
<!-- Creator: CorelDRAW 2020 (64 Bit) -->
<svg xmlns="http://www.w3.org/2000/svg" xml:space="preserve" width="58.2742mm" height="13.2102mm" version="1.1" style="shape-rendering:geometricPrecision; text-rendering:geometricPrecision; image-rendering:optimizeQuality; fill-rule:evenodd; clip-rule:evenodd"
viewBox="0 0 1788.28 405.38"
 xmlns:xlink="http://www.w3.org/1999/xlink"
 xmlns:xodm="http://www.corel.com/coreldraw/odm/2003">
 <defs>
  <style type="text/css">
   <![CDATA[
    .fil2 {fill:#0F743B}
    .fil3 {fill:#244055}
    .fil7 {fill:#62AA31}
    .fil1 {fill:#DF4147}
    .fil4 {fill:#F4F4F4}
    .fil0 {fill:#FBDB00}
    .fil8 {fill:#FEFEFE;fill-rule:nonzero}
    .fil5 {fill:#244055;fill-rule:nonzero}
    .fil6 {fill:#62AA31;fill-rule:nonzero}
   ]]>
  </style>
 </defs>
 <g id="Camada_x0020_1">
  <metadata id="CorelCorpID_0Corel-Layer"/>
  <rect class="fil0" x="1322.73" y="166.87" width="465.55" height="73.68"/>
  <rect class="fil1" x="1322.73" y="92.36" width="465.55" height="74.51"/>
  <rect class="fil2" x="1322.73" y="14.7" width="465.55" height="77.66"/>
  <path class="fil3" d="M0.06 21.32l-0 207.88 164.63 0.75 -6.02 -30.01c-39.8,-1.35 -86.41,0.69 -127.41,-0.4l-0.25 -155.13c45.91,-0.15 115.17,-1.71 159.77,-0.14l0.43 122.91 30.13 10.9 0.21 -164.51c-72.25,0.36 -150.35,-1.23 -221.53,0.38l0.06 7.37z"/>
  <path class="fil4" d="M1031.56 142.52c-7.75,-0.21 -21.66,-1.4 -27.97,1.34 -8.1,3.52 -8.87,16.12 -2.33,21.45 5.78,4.71 14.92,3.58 21.84,-0.44 8.77,-5.1 9.67,-9.56 8.45,-22.35z"/>
  <path class="fil5" d="M337.17 18.52c24.7,0 45.21,6.27 61.55,18.81 16.34,12.54 27.35,29.54 33.05,51.01l-34.48 0c-4.75,-12.16 -12.3,-21.8 -22.65,-28.92 -10.35,-7.13 -23.03,-10.69 -38.04,-10.69 -11.97,0 -22.66,2.95 -32.06,8.83 -9.4,5.89 -16.81,14.3 -22.23,25.22 -5.41,10.92 -8.12,23.7 -8.12,38.33 0,14.44 2.71,27.12 8.12,38.04 5.41,10.92 12.82,19.33 22.23,25.22 9.4,5.89 20.09,8.83 32.06,8.83 15.01,0 27.69,-3.56 38.04,-10.69 10.35,-7.13 17.91,-16.67 22.65,-28.64l34.48 0c-5.7,21.47 -16.72,38.42 -33.05,50.87 -16.34,12.44 -36.86,18.66 -61.55,18.66 -19,0 -35.81,-4.32 -50.44,-12.97 -14.63,-8.64 -25.93,-20.71 -33.91,-36.19 -7.98,-15.48 -11.97,-33.2 -11.97,-53.15 0,-19.95 3.99,-37.66 11.97,-53.15 7.98,-15.48 19.28,-27.59 33.91,-36.33 14.63,-8.74 31.44,-13.11 50.44,-13.11zm159.58 -7.69l0 210.87 -32.49 0 0 -210.87 32.49 0zm34.77 8.26c0,-5.51 1.9,-10.07 5.7,-13.68 3.8,-3.61 8.83,-5.42 15.1,-5.42 6.27,0 11.35,1.8 15.25,5.42 3.89,3.61 5.84,8.17 5.84,13.68 0,5.51 -1.95,9.97 -5.84,13.39 -3.9,3.42 -8.98,5.13 -15.25,5.13 -6.27,0 -11.3,-1.71 -15.1,-5.13 -3.8,-3.42 -5.7,-7.88 -5.7,-13.39zm37.05 45.6l0 157.01 -32.49 0 0 -157.01 32.49 0zm128.23 157.01l-56.42 -69.82 0 69.82 -32.49 0 0 -210.87 32.49 0 0 120.82 55.85 -66.97 39.04 0 -68.39 78.08 70.1 78.93 -40.18 0z"/>
  <path class="fil6" d="M859.91 18.27c17.48,0 33.11,3.28 46.88,9.83 13.77,6.55 24.98,15.82 33.62,27.78 8.64,11.97 14.39,25.93 17.24,41.89l-66.68 0c-3.04,-6.65 -7.36,-11.83 -12.97,-15.53 -5.6,-3.71 -12.02,-5.56 -19.23,-5.56 -10.64,0 -19.04,3.99 -25.22,11.97 -6.17,7.98 -9.26,18.71 -9.26,32.2 0,13.49 3.09,24.22 9.26,32.2 6.17,7.98 14.58,11.97 25.22,11.97 7.22,0 13.63,-1.85 19.23,-5.56 5.6,-3.7 9.93,-8.88 12.97,-15.53l66.68 0c-2.85,15.96 -8.6,29.92 -17.24,41.89 -8.64,11.97 -19.85,21.23 -33.62,27.78 -13.77,6.55 -29.4,9.83 -46.88,9.83 -20.33,0 -37.99,-4.32 -53,-12.97 -15.01,-8.64 -26.55,-20.75 -34.62,-36.33 -8.07,-15.58 -12.11,-33.34 -12.11,-53.29 0,-19.95 4.04,-37.71 12.11,-53.29 8.07,-15.58 19.62,-27.69 34.62,-36.33 15.01,-8.64 32.68,-12.97 53,-12.97zm178.39 41.04c10.45,0 19.47,2.14 27.07,6.41 7.6,4.27 13.39,10.11 17.38,17.53l0 -21.94 62.98 0 0 160.72 -62.98 0 0 -21.94c-3.99,7.41 -9.78,13.25 -17.38,17.53 -7.6,4.27 -16.62,6.41 -27.07,6.41 -12.54,0 -23.84,-3.28 -33.91,-9.83 -10.07,-6.55 -18,-16.05 -23.79,-28.5 -5.79,-12.44 -8.69,-27.12 -8.69,-44.03 0,-16.91 2.9,-31.58 8.69,-44.03 5.8,-12.44 13.73,-21.94 23.79,-28.5 10.07,-6.55 21.37,-9.83 33.91,-9.83zm21.09 55.28c-6.84,0 -12.44,2.38 -16.81,7.13 -4.37,4.75 -6.55,11.4 -6.55,19.95 0,8.55 2.18,15.2 6.55,19.95 4.37,4.75 9.97,7.13 16.81,7.13 6.84,0 12.44,-2.38 16.81,-7.13 4.37,-4.75 6.55,-11.4 6.55,-19.95 0,-8.55 -2.18,-15.2 -6.55,-19.95 -4.37,-4.75 -9.97,-7.13 -16.81,-7.13zm178.1 -23.65c6.46,-9.31 14.34,-16.76 23.65,-22.37 9.31,-5.6 19,-8.41 29.06,-8.41l0 67.54 -17.95 0c-11.97,0 -20.75,2.09 -26.36,6.27 -5.61,4.18 -8.41,11.59 -8.41,22.23l0 65.83 -63.26 0 0 -160.72 63.26 0 0 29.64z"/>
  <path class="fil5" d="M332.2 354.85l-35.6 0 -6.45 18.28 -14.57 0 31.06 -83.03 15.65 0 30.94 83.03 -14.57 0 -6.45 -18.28zm-3.82 -10.51l-13.98 -39.42 -13.98 39.42 27.96 0zm48.62 -59.61l0 88.4 -13.62 0 0 -88.4 13.62 0zm77.18 22.58l0 65.82 -13.74 0 0 -14.34c-1.67,4.86 -4.58,8.62 -8.72,11.29 -4.14,2.67 -8.96,4 -14.46,4 -7.64,0 -13.78,-2.47 -18.4,-7.4 -4.62,-4.94 -6.93,-11.99 -6.93,-21.15l0 -38.23 13.62 0 0 36.79c0,5.97 1.51,10.57 4.54,13.8 3.03,3.23 7.17,4.84 12.43,4.84 5.42,0 9.76,-1.75 13.02,-5.26 3.27,-3.5 4.9,-8.6 4.9,-15.29l0 -34.88 13.74 0zm42.77 -0.84c5.97,0 11.07,1.47 15.29,4.42 4.22,2.95 7.21,6.85 8.96,11.71l0 -15.29 13.62 0 0 66.54c0,6.13 -1.26,11.57 -3.77,16.31 -2.51,4.74 -6.11,8.46 -10.81,11.17 -4.7,2.71 -10.27,4.06 -16.72,4.06 -9.24,0 -16.71,-2.19 -22.4,-6.57 -5.69,-4.38 -9.26,-10.31 -10.69,-17.8l13.5 0c1.12,3.9 3.27,6.95 6.45,9.14 3.19,2.19 7.25,3.28 12.18,3.28 5.42,0 9.88,-1.67 13.38,-5.02 3.5,-3.34 5.25,-8.2 5.25,-14.57l0 -16.01c-1.75,4.86 -4.74,8.76 -8.96,11.71 -4.22,2.95 -9.32,4.42 -15.29,4.42 -5.74,0 -10.85,-1.36 -15.35,-4.06 -4.5,-2.71 -8.02,-6.61 -10.57,-11.71 -2.55,-5.1 -3.82,-11.11 -3.82,-18.04 0,-6.85 1.27,-12.82 3.82,-17.92 2.55,-5.1 6.07,-9 10.57,-11.71 4.5,-2.71 9.62,-4.06 15.35,-4.06zm4.18 11.95c-6.05,0 -10.89,1.93 -14.52,5.79 -3.62,3.86 -5.43,9.18 -5.43,15.95 0,6.77 1.81,12.09 5.43,15.95 3.62,3.86 8.46,5.8 14.52,5.8 3.82,0 7.25,-0.9 10.27,-2.69 3.03,-1.79 5.42,-4.32 7.17,-7.59 1.75,-3.27 2.63,-7.09 2.63,-11.47 0,-4.3 -0.87,-8.1 -2.63,-11.41 -1.75,-3.31 -4.14,-5.86 -7.17,-7.65 -3.03,-1.79 -6.45,-2.69 -10.27,-2.69zm110.75 -11.11l0 65.82 -13.74 0 0 -14.34c-1.67,4.86 -4.58,8.62 -8.72,11.29 -4.14,2.67 -8.96,4 -14.46,4 -7.64,0 -13.78,-2.47 -18.4,-7.4 -4.62,-4.94 -6.93,-11.99 -6.93,-21.15l0 -38.23 13.62 0 0 36.79c0,5.97 1.51,10.57 4.54,13.8 3.03,3.23 7.17,4.84 12.43,4.84 5.42,0 9.76,-1.75 13.02,-5.26 3.27,-3.5 4.9,-8.6 4.9,-15.29l0 -34.88 13.74 0zm77.53 29.75c0,2.23 -0.16,4.18 -0.48,5.86l-50.66 0c0.24,6.77 2.11,11.79 5.62,15.05 3.5,3.27 7.84,4.9 13.02,4.9 4.54,0 8.38,-1.15 11.53,-3.46 3.15,-2.31 5.08,-5.38 5.79,-9.2l14.58 0c-0.88,4.62 -2.71,8.72 -5.5,12.31 -2.79,3.58 -6.41,6.39 -10.87,8.42 -4.46,2.03 -9.44,3.05 -14.93,3.05 -6.37,0 -12,-1.36 -16.91,-4.06 -4.9,-2.71 -8.74,-6.61 -11.53,-11.71 -2.79,-5.1 -4.18,-11.11 -4.18,-18.04 0,-6.85 1.39,-12.82 4.18,-17.92 2.79,-5.1 6.63,-9 11.53,-11.71 4.9,-2.71 10.53,-4.06 16.91,-4.06 6.45,0 12.08,1.33 16.91,4 4.82,2.67 8.52,6.33 11.11,10.99 2.59,4.66 3.88,9.86 3.88,15.59zm-13.74 -0.36c0.16,-4.3 -0.58,-7.91 -2.21,-10.81 -1.63,-2.91 -3.86,-5.06 -6.69,-6.45 -2.83,-1.39 -5.91,-2.09 -9.26,-2.09 -5.34,0 -9.8,1.63 -13.38,4.9 -3.58,3.27 -5.54,8.08 -5.86,14.45l37.39 0zm40.5 -51.97l0 88.4 -13.62 0 0 -88.4 13.62 0zm70.84 21.74c5.97,0 11.07,1.47 15.29,4.42 4.22,2.95 7.17,6.85 8.84,11.71l0 -37.87 13.74 0 0 88.4 -13.74 0 0 -15.29c-1.67,4.86 -4.62,8.76 -8.84,11.71 -4.22,2.95 -9.32,4.42 -15.29,4.42 -5.74,0 -10.85,-1.36 -15.35,-4.06 -4.5,-2.71 -8.02,-6.61 -10.57,-11.71 -2.55,-5.1 -3.82,-11.11 -3.82,-18.04 0,-6.85 1.27,-12.82 3.82,-17.92 2.55,-5.1 6.07,-9 10.57,-11.71 4.5,-2.71 9.62,-4.06 15.35,-4.06zm4.18 11.95c-6.05,0 -10.89,1.93 -14.52,5.79 -3.62,3.86 -5.43,9.18 -5.43,15.95 0,6.77 1.81,12.09 5.43,15.95 3.62,3.86 8.46,5.8 14.52,5.8 3.82,0 7.25,-0.9 10.27,-2.69 3.03,-1.79 5.42,-4.32 7.17,-7.59 1.75,-3.27 2.63,-7.09 2.63,-11.47 0,-4.3 -0.87,-8.1 -2.63,-11.41 -1.75,-3.31 -4.14,-5.86 -7.17,-7.65 -3.03,-1.79 -6.45,-2.69 -10.27,-2.69zm111.22 18.64c0,2.23 -0.16,4.18 -0.48,5.86l-50.66 0c0.24,6.77 2.11,11.79 5.62,15.05 3.5,3.27 7.84,4.9 13.02,4.9 4.54,0 8.38,-1.15 11.53,-3.46 3.15,-2.31 5.08,-5.38 5.79,-9.2l14.58 0c-0.88,4.62 -2.71,8.72 -5.5,12.31 -2.79,3.58 -6.41,6.39 -10.87,8.42 -4.46,2.03 -9.44,3.05 -14.93,3.05 -6.37,0 -12,-1.36 -16.91,-4.06 -4.9,-2.71 -8.74,-6.61 -11.53,-11.71 -2.79,-5.1 -4.18,-11.11 -4.18,-18.04 0,-6.85 1.39,-12.82 4.18,-17.92 2.79,-5.1 6.63,-9 11.53,-11.71 4.9,-2.71 10.53,-4.06 16.91,-4.06 6.45,0 12.08,1.33 16.91,4 4.82,2.67 8.52,6.33 11.11,10.99 2.59,4.66 3.88,9.86 3.88,15.59zm-13.74 -0.36c0.16,-4.3 -0.58,-7.91 -2.21,-10.81 -1.63,-2.91 -3.86,-5.06 -6.69,-6.45 -2.83,-1.39 -5.91,-2.09 -9.26,-2.09 -5.34,0 -9.8,1.63 -13.38,4.9 -3.58,3.27 -5.54,8.08 -5.86,14.45l37.39 0z"/>
  <path class="fil6" d="M994.23 289.24l17.44 58.18 17.32 -58.18 28.2 0 -28.43 84.58 -34.29 0 -28.43 -84.58 28.19 0zm134.16 50.29c0,1.67 -0.2,3.42 -0.6,5.26l-42.41 0c0.24,3.34 1,5.63 2.27,6.87 1.27,1.24 2.95,1.85 5.02,1.85 2.87,0 4.94,-1.31 6.21,-3.94l28.07 0c-0.95,4.78 -2.97,9.06 -6.03,12.84 -3.07,3.78 -6.93,6.77 -11.59,8.96 -4.66,2.19 -9.78,3.29 -15.35,3.29 -6.69,0 -12.64,-1.4 -17.86,-4.18 -5.22,-2.79 -9.28,-6.79 -12.18,-12.01 -2.91,-5.21 -4.36,-11.33 -4.36,-18.34 0,-7.01 1.45,-13.12 4.36,-18.34 2.91,-5.22 6.97,-9.22 12.18,-12 5.22,-2.79 11.17,-4.18 17.86,-4.18 6.69,0 12.65,1.37 17.86,4.12 5.22,2.75 9.28,6.67 12.19,11.77 2.91,5.1 4.36,11.11 4.36,18.04zm-26.88 -5.62c0,-2.55 -0.72,-4.44 -2.15,-5.67 -1.43,-1.23 -3.23,-1.85 -5.38,-1.85 -4.86,0 -7.64,2.51 -8.36,7.52l15.89 0zm64.75 -27.48l0 67.38 -26.52 0 0 -67.38 26.52 0zm2.27 -15.77l-30.94 11.23 0 -17.68 30.94 -13.14 0 19.59zm43.48 14.93c8.76,0 16.15,2.47 22.16,7.41 6.01,4.94 9.82,11.79 11.41,20.55l-28.08 0c-1.03,-3.5 -3.07,-5.26 -6.09,-5.26 -2.15,0 -3.84,0.99 -5.08,2.99 -1.23,1.99 -1.85,4.94 -1.85,8.84 0,3.9 0.62,6.85 1.85,8.84 1.24,1.99 2.93,2.99 5.08,2.99 3.03,0 5.06,-1.75 6.09,-5.26l28.08 0c-1.59,8.76 -5.4,15.61 -11.41,20.55 -6.01,4.94 -13.4,7.41 -22.16,7.41 -6.69,0 -12.64,-1.4 -17.86,-4.18 -5.22,-2.79 -9.28,-6.79 -12.18,-12.01 -2.91,-5.21 -4.36,-11.33 -4.36,-18.34 0,-7.01 1.45,-13.12 4.36,-18.34 2.91,-5.22 6.97,-9.22 12.18,-12 5.22,-2.79 11.17,-4.18 17.86,-4.18zm113.25 0.83l0 67.38 -26.52 0 0 -10.27c-2.07,3.19 -4.84,5.78 -8.3,7.76 -3.46,1.99 -7.59,2.99 -12.37,2.99 -7.72,0 -13.76,-2.59 -18.1,-7.77 -4.34,-5.18 -6.51,-12.19 -6.51,-21.02l0 -39.07 26.4 0 0 35.72c0,3.19 0.86,5.71 2.57,7.59 1.71,1.87 4,2.8 6.87,2.8 2.95,0 5.26,-0.93 6.93,-2.8 1.67,-1.87 2.51,-4.4 2.51,-7.59l0 -35.72 26.52 0zm38.47 -21.02l0 88.4 -26.52 0 0 -88.4 26.52 0zm43.96 20.19c6.77,0 12.86,1.39 18.28,4.18 5.42,2.79 9.66,6.79 12.72,12 3.07,5.22 4.6,11.33 4.6,18.34 0,7.01 -1.53,13.12 -4.6,18.34 -3.07,5.22 -7.31,9.22 -12.72,12.01 -5.42,2.79 -11.51,4.18 -18.28,4.18 -6.77,0 -12.86,-1.4 -18.28,-4.18 -5.41,-2.79 -9.65,-6.79 -12.72,-12.01 -3.07,-5.21 -4.6,-11.33 -4.6,-18.34 0,-7.01 1.53,-13.12 4.6,-18.34 3.07,-5.22 7.31,-9.22 12.72,-12 5.42,-2.79 11.51,-4.18 18.28,-4.18zm0 22.94c-2.47,0 -4.54,0.97 -6.21,2.92 -1.67,1.95 -2.51,4.84 -2.51,8.66 0,3.82 0.82,6.71 2.45,8.66 1.63,1.95 3.72,2.93 6.27,2.93 2.47,0 4.54,-0.98 6.21,-2.93 1.67,-1.95 2.51,-4.84 2.51,-8.66 0,-3.82 -0.84,-6.71 -2.51,-8.66 -1.67,-1.95 -3.74,-2.92 -6.21,-2.92zm70.48 -22.94c9.16,0 16.47,2.21 21.92,6.63 5.45,4.42 8.9,10.25 10.33,17.5l-24.73 0c-1.04,-3.82 -3.74,-5.74 -8.13,-5.74 -2.47,0 -3.7,0.96 -3.7,2.87 0,1.35 0.9,2.39 2.69,3.11 1.79,0.72 4.64,1.47 8.54,2.27 5.1,0.96 9.46,2.09 13.08,3.41 3.62,1.31 6.75,3.44 9.38,6.39 2.63,2.95 3.94,6.97 3.94,12.07 0,3.98 -1.11,7.52 -3.34,10.63 -2.23,3.11 -5.49,5.54 -9.8,7.29 -4.3,1.75 -9.36,2.63 -15.17,2.63 -9.72,0 -17.44,-2.07 -23.18,-6.21 -5.74,-4.14 -9.28,-10.11 -10.63,-17.92l25.45 0c0.48,3.9 3.23,5.85 8.24,5.85 2.71,0 4.06,-0.95 4.06,-2.87 0,-1.51 -0.92,-2.63 -2.75,-3.34 -1.83,-0.72 -4.78,-1.43 -8.84,-2.15 -5.17,-1.03 -9.45,-2.15 -12.84,-3.34 -3.38,-1.19 -6.35,-3.23 -8.9,-6.09 -2.55,-2.87 -3.82,-6.81 -3.82,-11.83 0,-4.06 1.08,-7.69 3.23,-10.87 2.15,-3.19 5.33,-5.7 9.56,-7.53 4.22,-1.83 9.36,-2.75 15.41,-2.75z"/>
  <path class="fil7" d="M229.97 262.61c1.71,-2.32 12.69,-12.04 14.51,-12.57l-29.05 -34.14c1.4,-1.18 12.64,-5.56 15.14,-6.62 3.58,-1.51 12.97,-4.59 15.16,-6.77 -5,-1.78 -75.56,-28.42 -79.46,-29.35l16.93 80.78c1.49,-0.92 3.29,-4.63 4.12,-6.05l12.45 -19.62 14.89 17.06c3.13,3.44 12.8,15.64 15.32,17.29z"/>
  <path class="fil8" d="M1481.89 221.47l-34.75 -65.88 0 65.88 -57.58 0 0 -183.62 85.58 0c14.87,0 27.58,2.64 38.13,7.91 10.55,5.27 18.46,12.45 23.73,21.52 5.27,9.08 7.91,19.32 7.91,30.73 0,12.28 -3.42,23.17 -10.25,32.68 -6.83,9.51 -16.64,16.34 -29.44,20.49l39.94 70.28 -63.28 0zm-34.75 -104.26l22.82 0c5.53,0 9.68,-1.25 12.45,-3.76 2.76,-2.51 4.15,-6.44 4.15,-11.8 0,-4.84 -1.43,-8.65 -4.28,-11.41 -2.85,-2.77 -6.96,-4.15 -12.32,-4.15l-22.82 0 0 31.12zm258.05 50.06c0,10.54 -2.73,20.05 -8.17,28.53 -5.45,8.47 -13.36,15.17 -23.73,20.1 -10.38,4.93 -22.74,7.39 -37.09,7.39 -21.96,0 -40.07,-5.15 -54.33,-15.43 -14.26,-10.29 -22,-25.37 -23.21,-45.26l61.21 0c0.86,10.55 5.53,15.82 14.01,15.82 2.94,0 5.32,-0.78 7.13,-2.34 1.81,-1.56 2.72,-3.8 2.72,-6.74 0,-4.32 -2.2,-7.74 -6.61,-10.25 -4.41,-2.51 -11.54,-5.4 -21.4,-8.69 -11.58,-3.8 -21.23,-7.69 -28.92,-11.67 -7.69,-3.98 -14.39,-9.85 -20.1,-17.64 -5.7,-7.78 -8.56,-17.89 -8.56,-30.34 0,-11.93 3.07,-22.09 9.21,-30.47 6.14,-8.39 14.52,-14.74 25.16,-19.06 10.63,-4.32 22.6,-6.48 35.92,-6.48 21.96,0 39.42,5.1 52.39,15.3 12.97,10.2 20.05,24.9 21.27,44.09l-61.99 0c-0.87,-9.68 -4.84,-14.52 -11.93,-14.52 -2.42,0 -4.41,0.73 -5.97,2.2 -1.56,1.47 -2.33,3.67 -2.33,6.61 0,3.98 2.2,7.22 6.61,9.73 4.41,2.51 11.28,5.4 20.62,8.69 11.76,4.15 21.48,8.25 29.18,12.32 7.69,4.06 14.44,10.03 20.23,17.9 5.79,7.87 8.69,17.94 8.69,30.21z"/>
 </g>
</svg>
