<?xml version="1.0" encoding="UTF-8"?>
<!DOCTYPE svg PUBLIC "-//W3C//DTD SVG 1.1//EN" "http://www.w3.org/Graphics/SVG/1.1/DTD/svg11.dtd">
<!-- Creator: CorelDRAW 2020 (64 Bit) -->
<svg xmlns="http://www.w3.org/2000/svg" xml:space="preserve" width="58.2999mm" height="13.2102mm" version="1.1" style="shape-rendering:geometricPrecision; text-rendering:geometricPrecision; image-rendering:optimizeQuality; fill-rule:evenodd; clip-rule:evenodd"
viewBox="0 0 1780.26 403.39"
 xmlns:xlink="http://www.w3.org/1999/xlink"
 xmlns:xodm="http://www.corel.com/coreldraw/odm/2003">
 <defs>
  <style type="text/css">
   <![CDATA[
    .fil3 {fill:#FEFEFE}
    .fil2 {fill:#0F743B}
    .fil6 {fill:#62AA31}
    .fil1 {fill:#DF4147}
    .fil0 {fill:#FBDB00}
    .fil4 {fill:#FEFEFE;fill-rule:nonzero}
    .fil5 {fill:#62AA31;fill-rule:nonzero}
   ]]>
  </style>
 </defs>
 <g id="Camada_x0020_1">
  <metadata id="CorelCorpID_0Corel-Layer"/>
  <rect class="fil0" x="1317" y="164.12" width="463.26" height="73.31"/>
  <rect class="fil1" x="1317" y="89.98" width="463.26" height="74.14"/>
  <rect class="fil2" x="1317" y="12.7" width="463.26" height="77.27"/>
  <path class="fil3" d="M0.05 21.22l-0 206.86 163.82 0.74 -5.99 -29.86c-39.61,-1.34 -85.98,0.69 -126.78,-0.4l-0.25 -154.37c45.68,-0.15 114.61,-1.7 158.98,-0.14l0.43 122.31 29.98 10.85 0.2 -163.7c-71.9,0.35 -149.61,-1.23 -220.44,0.38l0.05 7.33z"/>
  <path class="fil3" d="M1026.49 141.82c-7.71,-0.21 -21.55,-1.4 -27.83,1.34 -8.06,3.5 -8.82,16.04 -2.31,21.35 5.75,4.69 14.85,3.56 21.73,-0.44 8.73,-5.07 9.62,-9.51 8.41,-22.24z"/>
  <path class="fil4" d="M335.51 18.43c24.58,0 44.99,6.24 61.25,18.72 16.26,12.48 27.22,29.4 32.89,50.76l-34.31 0c-4.72,-12.1 -12.24,-21.69 -22.54,-28.78 -10.3,-7.09 -22.92,-10.64 -37.86,-10.64 -11.91,0 -22.54,2.93 -31.9,8.79 -9.36,5.86 -16.73,14.23 -22.12,25.09 -5.39,10.87 -8.08,23.58 -8.08,38.14 0,14.37 2.7,26.98 8.08,37.86 5.39,10.87 12.76,19.23 22.12,25.09 9.36,5.86 19.99,8.79 31.9,8.79 14.94,0 27.55,-3.55 37.86,-10.63 10.3,-7.09 17.82,-16.59 22.54,-28.5l34.31 0c-5.67,21.36 -16.63,38.23 -32.89,50.62 -16.26,12.38 -36.67,18.57 -61.25,18.57 -18.9,0 -35.64,-4.3 -50.19,-12.9 -14.56,-8.6 -25.8,-20.61 -33.74,-36.01 -7.94,-15.41 -11.91,-33.04 -11.91,-52.89 0,-19.85 3.97,-37.48 11.91,-52.89 7.94,-15.41 19.19,-27.46 33.74,-36.15 14.56,-8.7 31.29,-13.05 50.19,-13.05zm158.79 -7.66l0 209.84 -32.33 0 0 -209.84 32.33 0zm34.59 8.22c0,-5.48 1.89,-10.02 5.67,-13.61 3.78,-3.59 8.79,-5.39 15.03,-5.39 6.24,0 11.3,1.8 15.17,5.39 3.88,3.59 5.81,8.13 5.81,13.61 0,5.48 -1.94,9.92 -5.81,13.33 -3.88,3.4 -8.93,5.11 -15.17,5.11 -6.24,0 -11.25,-1.7 -15.03,-5.11 -3.78,-3.4 -5.67,-7.84 -5.67,-13.33zm36.86 45.37l0 156.24 -32.33 0 0 -156.24 32.33 0zm127.6 156.24l-56.14 -69.47 0 69.47 -32.33 0 0 -209.84 32.33 0 0 120.23 55.58 -66.64 38.85 0 -68.05 77.7 69.75 78.55 -39.98 0z"/>
  <path class="fil5" d="M855.68 18.18c17.39,0 32.94,3.26 46.65,9.78 13.7,6.52 24.86,15.74 33.46,27.65 8.6,11.91 14.32,25.8 17.16,41.69l-66.36 0c-3.02,-6.62 -7.33,-11.77 -12.9,-15.45 -5.58,-3.69 -11.96,-5.53 -19.14,-5.53 -10.59,0 -18.95,3.97 -25.09,11.91 -6.14,7.94 -9.22,18.62 -9.22,32.04 0,13.42 3.07,24.11 9.22,32.04 6.14,7.94 14.51,11.91 25.09,11.91 7.18,0 13.56,-1.84 19.14,-5.53 5.58,-3.69 9.88,-8.84 12.9,-15.45l66.36 0c-2.84,15.88 -8.56,29.77 -17.16,41.69 -8.6,11.91 -19.75,21.12 -33.46,27.65 -13.7,6.52 -29.25,9.78 -46.65,9.78 -20.23,0 -37.81,-4.3 -52.74,-12.9 -14.94,-8.6 -26.42,-20.65 -34.45,-36.15 -8.03,-15.5 -12.05,-33.17 -12.05,-53.03 0,-19.85 4.02,-37.52 12.05,-53.03 8.03,-15.5 19.52,-27.55 34.45,-36.15 14.94,-8.6 32.51,-12.9 52.74,-12.9zm177.51 40.83c10.4,0 19.38,2.13 26.94,6.38 7.56,4.25 13.33,10.06 17.3,17.44l0 -21.84 62.67 0 0 159.93 -62.67 0 0 -21.83c-3.97,7.37 -9.73,13.19 -17.3,17.44 -7.56,4.25 -16.54,6.38 -26.94,6.38 -12.48,0 -23.73,-3.26 -33.75,-9.78 -10.02,-6.52 -17.91,-15.97 -23.68,-28.36 -5.77,-12.38 -8.65,-26.98 -8.65,-43.81 0,-16.83 2.88,-31.43 8.65,-43.81 5.77,-12.38 13.66,-21.83 23.68,-28.36 10.02,-6.52 21.27,-9.78 33.75,-9.78zm20.98 55.01c-6.81,0 -12.38,2.36 -16.73,7.09 -4.35,4.73 -6.52,11.34 -6.52,19.85 0,8.51 2.17,15.12 6.52,19.85 4.35,4.73 9.92,7.09 16.73,7.09 6.8,0 12.38,-2.36 16.73,-7.09 4.35,-4.72 6.52,-11.34 6.52,-19.85 0,-8.51 -2.17,-15.12 -6.52,-19.85 -4.35,-4.73 -9.92,-7.09 -16.73,-7.09zm177.22 -23.53c6.43,-9.26 14.27,-16.68 23.54,-22.26 9.26,-5.58 18.9,-8.36 28.92,-8.36l0 67.2 -17.86 0c-11.91,0 -20.65,2.08 -26.23,6.24 -5.58,4.16 -8.37,11.53 -8.37,22.12l0 65.5 -62.95 0 0 -159.93 62.95 0 0 29.49z"/>
  <path class="fil4" d="M330.56 353.11l-35.43 0 -6.42 18.19 -14.5 0 30.91 -82.62 15.57 0 30.79 82.62 -14.5 0 -6.42 -18.19zm-3.8 -10.46l-13.91 -39.23 -13.91 39.23 27.82 0zm48.38 -59.32l0 87.97 -13.55 0 0 -87.97 13.55 0zm76.8 22.47l0 65.5 -13.67 0 0 -14.27c-1.66,4.84 -4.56,8.58 -8.68,11.23 -4.12,2.66 -8.92,3.98 -14.39,3.98 -7.61,0 -13.71,-2.46 -18.31,-7.37 -4.6,-4.91 -6.9,-11.93 -6.9,-21.04l0 -38.04 13.55 0 0 36.61c0,5.95 1.51,10.52 4.52,13.73 3.01,3.21 7.13,4.82 12.36,4.82 5.39,0 9.71,-1.74 12.96,-5.23 3.25,-3.49 4.87,-8.56 4.87,-15.22l0 -34.71 13.67 0zm42.56 -0.83c5.94,0 11.01,1.47 15.22,4.4 4.2,2.93 7.17,6.82 8.91,11.65l0 -15.22 13.56 0 0 66.21c0,6.1 -1.25,11.51 -3.75,16.23 -2.49,4.71 -6.08,8.42 -10.76,11.11 -4.68,2.7 -10.22,4.04 -16.64,4.04 -9.19,0 -16.62,-2.18 -22.29,-6.54 -5.66,-4.36 -9.21,-10.26 -10.64,-17.71l13.43 0c1.11,3.88 3.25,6.92 6.42,9.1 3.17,2.18 7.21,3.27 12.12,3.27 5.39,0 9.83,-1.66 13.32,-4.99 3.49,-3.33 5.23,-8.16 5.23,-14.5l0 -15.93c-1.74,4.83 -4.71,8.72 -8.91,11.65 -4.2,2.93 -9.27,4.4 -15.22,4.4 -5.71,0 -10.8,-1.35 -15.28,-4.04 -4.48,-2.7 -7.99,-6.58 -10.52,-11.65 -2.54,-5.07 -3.8,-11.06 -3.8,-17.95 0,-6.82 1.27,-12.76 3.8,-17.83 2.53,-5.07 6.04,-8.96 10.52,-11.65 4.48,-2.7 9.57,-4.04 15.28,-4.04zm4.16 11.89c-6.02,0 -10.84,1.92 -14.44,5.77 -3.61,3.84 -5.41,9.13 -5.41,15.87 0,6.74 1.8,12.03 5.41,15.87 3.61,3.84 8.42,5.77 14.44,5.77 3.8,0 7.21,-0.89 10.22,-2.67 3.01,-1.78 5.39,-4.3 7.13,-7.55 1.74,-3.25 2.61,-7.05 2.61,-11.41 0,-4.28 -0.87,-8.06 -2.61,-11.35 -1.74,-3.29 -4.12,-5.83 -7.13,-7.61 -3.01,-1.78 -6.42,-2.67 -10.22,-2.67zm110.2 -11.05l0 65.5 -13.67 0 0 -14.27c-1.66,4.84 -4.56,8.58 -8.68,11.23 -4.12,2.66 -8.92,3.98 -14.39,3.98 -7.61,0 -13.71,-2.46 -18.31,-7.37 -4.6,-4.91 -6.9,-11.93 -6.9,-21.04l0 -38.04 13.55 0 0 36.61c0,5.95 1.51,10.52 4.52,13.73 3.01,3.21 7.13,4.82 12.36,4.82 5.39,0 9.71,-1.74 12.96,-5.23 3.25,-3.49 4.87,-8.56 4.87,-15.22l0 -34.71 13.67 0zm77.15 29.6c0,2.22 -0.16,4.16 -0.47,5.83l-50.41 0c0.24,6.74 2.1,11.73 5.59,14.98 3.49,3.25 7.81,4.87 12.96,4.87 4.52,0 8.34,-1.15 11.47,-3.45 3.13,-2.3 5.05,-5.35 5.77,-9.15l14.5 0c-0.87,4.6 -2.7,8.68 -5.47,12.25 -2.77,3.57 -6.38,6.36 -10.82,8.38 -4.44,2.02 -9.39,3.03 -14.86,3.03 -6.34,0 -11.95,-1.35 -16.82,-4.04 -4.87,-2.7 -8.7,-6.58 -11.47,-11.65 -2.78,-5.07 -4.16,-11.06 -4.16,-17.95 0,-6.82 1.39,-12.76 4.16,-17.83 2.77,-5.07 6.6,-8.96 11.47,-11.65 4.88,-2.7 10.48,-4.04 16.82,-4.04 6.42,0 12.03,1.33 16.82,3.98 4.79,2.66 8.48,6.3 11.05,10.94 2.58,4.64 3.86,9.81 3.86,15.51zm-13.67 -0.36c0.16,-4.28 -0.57,-7.87 -2.2,-10.76 -1.62,-2.89 -3.84,-5.03 -6.66,-6.42 -2.81,-1.39 -5.88,-2.08 -9.21,-2.08 -5.31,0 -9.75,1.62 -13.31,4.87 -3.57,3.25 -5.51,8.04 -5.83,14.38l37.21 0zm40.3 -51.71l0 87.97 -13.55 0 0 -87.97 13.55 0zm70.5 21.63c5.94,0 11.01,1.47 15.22,4.4 4.2,2.93 7.13,6.82 8.8,11.65l0 -37.68 13.67 0 0 87.97 -13.67 0 0 -15.22c-1.66,4.83 -4.6,8.72 -8.8,11.65 -4.2,2.93 -9.27,4.4 -15.22,4.4 -5.71,0 -10.8,-1.35 -15.28,-4.04 -4.48,-2.7 -7.99,-6.58 -10.52,-11.65 -2.54,-5.07 -3.8,-11.06 -3.8,-17.95 0,-6.82 1.27,-12.76 3.8,-17.83 2.53,-5.07 6.04,-8.96 10.52,-11.65 4.48,-2.7 9.57,-4.04 15.28,-4.04zm4.16 11.89c-6.02,0 -10.84,1.92 -14.44,5.77 -3.61,3.84 -5.41,9.13 -5.41,15.87 0,6.74 1.8,12.03 5.41,15.87 3.61,3.84 8.42,5.77 14.44,5.77 3.8,0 7.21,-0.89 10.22,-2.67 3.01,-1.78 5.39,-4.3 7.13,-7.55 1.74,-3.25 2.61,-7.05 2.61,-11.41 0,-4.28 -0.87,-8.06 -2.61,-11.35 -1.74,-3.29 -4.12,-5.83 -7.13,-7.61 -3.01,-1.78 -6.42,-2.67 -10.22,-2.67zm110.68 18.54c0,2.22 -0.16,4.16 -0.47,5.83l-50.41 0c0.24,6.74 2.1,11.73 5.59,14.98 3.49,3.25 7.81,4.87 12.96,4.87 4.52,0 8.34,-1.15 11.47,-3.45 3.13,-2.3 5.05,-5.35 5.77,-9.15l14.5 0c-0.87,4.6 -2.7,8.68 -5.47,12.25 -2.77,3.57 -6.38,6.36 -10.82,8.38 -4.44,2.02 -9.39,3.03 -14.86,3.03 -6.34,0 -11.95,-1.35 -16.82,-4.04 -4.87,-2.7 -8.7,-6.58 -11.47,-11.65 -2.78,-5.07 -4.16,-11.06 -4.16,-17.95 0,-6.82 1.39,-12.76 4.16,-17.83 2.77,-5.07 6.6,-8.96 11.47,-11.65 4.88,-2.7 10.48,-4.04 16.82,-4.04 6.42,0 12.03,1.33 16.82,3.98 4.79,2.66 8.48,6.3 11.05,10.94 2.58,4.64 3.86,9.81 3.86,15.51zm-13.67 -0.36c0.16,-4.28 -0.57,-7.87 -2.2,-10.76 -1.62,-2.89 -3.84,-5.03 -6.66,-6.42 -2.81,-1.39 -5.88,-2.08 -9.21,-2.08 -5.31,0 -9.75,1.62 -13.31,4.87 -3.57,3.25 -5.51,8.04 -5.83,14.38l37.21 0z"/>
  <path class="fil5" d="M989.34 287.82l17.36 57.89 17.24 -57.89 28.06 0 -28.29 84.16 -34.12 0 -28.29 -84.16 28.05 0zm133.5 50.05c0,1.66 -0.2,3.41 -0.59,5.23l-42.2 0c0.24,3.33 0.99,5.61 2.26,6.83 1.27,1.23 2.93,1.84 4.99,1.84 2.86,0 4.91,-1.31 6.18,-3.92l27.93 0c-0.95,4.75 -2.95,9.01 -6,12.78 -3.05,3.77 -6.9,6.74 -11.53,8.92 -4.64,2.18 -9.73,3.27 -15.28,3.27 -6.66,0 -12.58,-1.39 -17.77,-4.16 -5.19,-2.77 -9.23,-6.76 -12.12,-11.95 -2.89,-5.19 -4.34,-11.27 -4.34,-18.25 0,-6.97 1.44,-13.06 4.34,-18.25 2.89,-5.19 6.93,-9.17 12.12,-11.95 5.19,-2.78 11.12,-4.16 17.77,-4.16 6.66,0 12.58,1.37 17.77,4.1 5.19,2.73 9.23,6.64 12.13,11.71 2.89,5.07 4.34,11.05 4.34,17.95zm-26.75 -5.59c0,-2.53 -0.71,-4.42 -2.14,-5.65 -1.43,-1.23 -3.21,-1.84 -5.35,-1.84 -4.83,0 -7.61,2.49 -8.32,7.49l15.81 0zm64.43 -27.34l0 67.05 -26.39 0 0 -67.05 26.39 0zm2.26 -15.69l-30.79 11.17 0 -17.59 30.79 -13.08 0 19.5zm43.27 14.86c8.72,0 16.07,2.46 22.05,7.37 5.98,4.91 9.77,11.73 11.35,20.45l-27.94 0c-1.03,-3.49 -3.05,-5.23 -6.06,-5.23 -2.14,0 -3.82,0.99 -5.05,2.97 -1.23,1.98 -1.84,4.91 -1.84,8.8 0,3.88 0.61,6.82 1.84,8.8 1.23,1.98 2.91,2.97 5.05,2.97 3.01,0 5.03,-1.74 6.06,-5.23l27.94 0c-1.58,8.72 -5.37,15.53 -11.35,20.45 -5.99,4.91 -13.34,7.37 -22.05,7.37 -6.66,0 -12.58,-1.39 -17.77,-4.16 -5.19,-2.77 -9.23,-6.76 -12.12,-11.95 -2.89,-5.19 -4.34,-11.27 -4.34,-18.25 0,-6.97 1.44,-13.06 4.34,-18.25 2.89,-5.19 6.93,-9.17 12.12,-11.95 5.19,-2.78 11.12,-4.16 17.77,-4.16zm112.7 0.83l0 67.05 -26.39 0 0 -10.22c-2.06,3.17 -4.81,5.75 -8.26,7.73 -3.45,1.98 -7.55,2.97 -12.31,2.97 -7.69,0 -13.69,-2.58 -18.01,-7.73 -4.32,-5.15 -6.48,-12.13 -6.48,-20.92l0 -38.88 26.27 0 0 35.55c0,3.17 0.85,5.69 2.56,7.55 1.7,1.86 3.98,2.79 6.84,2.79 2.93,0 5.23,-0.93 6.9,-2.79 1.66,-1.86 2.49,-4.38 2.49,-7.55l0 -35.55 26.39 0zm38.28 -20.92l0 87.97 -26.39 0 0 -87.97 26.39 0zm43.75 20.09c6.74,0 12.8,1.39 18.19,4.16 5.39,2.77 9.61,6.75 12.66,11.95 3.05,5.19 4.58,11.27 4.58,18.25 0,6.97 -1.53,13.06 -4.58,18.25 -3.05,5.19 -7.27,9.18 -12.66,11.95 -5.39,2.77 -11.45,4.16 -18.19,4.16 -6.74,0 -12.8,-1.39 -18.19,-4.16 -5.39,-2.77 -9.61,-6.76 -12.66,-11.95 -3.05,-5.19 -4.57,-11.27 -4.57,-18.25 0,-6.97 1.52,-13.06 4.57,-18.25 3.05,-5.19 7.27,-9.17 12.66,-11.95 5.39,-2.78 11.45,-4.16 18.19,-4.16zm0 22.83c-2.46,0 -4.52,0.97 -6.18,2.91 -1.66,1.94 -2.49,4.82 -2.49,8.62 0,3.8 0.81,6.68 2.44,8.62 1.62,1.94 3.7,2.91 6.24,2.91 2.46,0 4.52,-0.97 6.18,-2.91 1.66,-1.94 2.5,-4.81 2.5,-8.62 0,-3.8 -0.83,-6.68 -2.5,-8.62 -1.66,-1.94 -3.73,-2.91 -6.18,-2.91zm70.14 -22.83c9.12,0 16.39,2.2 21.82,6.6 5.43,4.4 8.86,10.2 10.28,17.41l-24.61 0c-1.03,-3.8 -3.73,-5.71 -8.09,-5.71 -2.46,0 -3.69,0.95 -3.69,2.86 0,1.35 0.89,2.38 2.67,3.09 1.78,0.71 4.62,1.47 8.5,2.26 5.07,0.95 9.41,2.08 13.02,3.39 3.61,1.31 6.71,3.43 9.33,6.36 2.61,2.93 3.92,6.93 3.92,12.01 0,3.96 -1.11,7.49 -3.33,10.58 -2.22,3.09 -5.47,5.51 -9.75,7.25 -4.28,1.74 -9.31,2.62 -15.1,2.62 -9.67,0 -17.36,-2.06 -23.06,-6.18 -5.71,-4.12 -9.23,-10.06 -10.58,-17.83l25.32 0c0.48,3.88 3.21,5.82 8.2,5.82 2.7,0 4.04,-0.95 4.04,-2.85 0,-1.51 -0.91,-2.62 -2.74,-3.33 -1.82,-0.71 -4.75,-1.43 -8.8,-2.14 -5.15,-1.03 -9.41,-2.14 -12.78,-3.33 -3.37,-1.19 -6.32,-3.21 -8.86,-6.06 -2.53,-2.86 -3.8,-6.78 -3.8,-11.77 0,-4.04 1.07,-7.65 3.21,-10.82 2.14,-3.17 5.31,-5.67 9.51,-7.49 4.2,-1.82 9.31,-2.73 15.34,-2.73z"/>
  <path class="fil6" d="M228.84 261.32c1.7,-2.31 12.62,-11.98 14.43,-12.51l-28.91 -33.97c1.39,-1.18 12.58,-5.53 15.06,-6.58 3.56,-1.5 12.9,-4.57 15.08,-6.74 -4.97,-1.77 -75.19,-28.28 -79.06,-29.2l16.85 80.38c1.48,-0.91 3.27,-4.61 4.1,-6.02l12.39 -19.52 14.81 16.97c3.12,3.42 12.74,15.57 15.24,17.2z"/>
  <path class="fil4" d="M1474.59 220.38l-34.58 -65.55 0 65.55 -57.29 0 0 -182.72 85.16 0c14.8,0 27.44,2.62 37.94,7.87 10.5,5.25 18.36,12.39 23.61,21.42 5.25,9.03 7.87,19.23 7.87,30.58 0,12.22 -3.4,23.05 -10.2,32.52 -6.79,9.46 -16.56,16.26 -29.29,20.39l39.74 69.94 -62.97 0zm-34.58 -103.75l22.71 0c5.51,0 9.63,-1.25 12.39,-3.74 2.75,-2.49 4.13,-6.41 4.13,-11.74 0,-4.82 -1.42,-8.61 -4.26,-11.36 -2.84,-2.75 -6.92,-4.13 -12.26,-4.13l-22.71 0 0 30.97zm256.78 49.81c0,10.49 -2.71,19.96 -8.13,28.39 -5.42,8.43 -13.29,15.1 -23.61,20 -10.32,4.9 -22.62,7.36 -36.91,7.36 -21.85,0 -39.87,-5.12 -54.07,-15.36 -14.19,-10.24 -21.89,-25.25 -23.1,-45.03l60.91 0c0.86,10.5 5.51,15.74 13.94,15.74 2.92,0 5.29,-0.78 7.1,-2.32 1.8,-1.55 2.71,-3.78 2.71,-6.71 0,-4.3 -2.19,-7.7 -6.58,-10.2 -4.39,-2.49 -11.48,-5.37 -21.29,-8.64 -11.53,-3.78 -21.12,-7.66 -28.78,-11.61 -7.66,-3.96 -14.32,-9.81 -20,-17.55 -5.68,-7.74 -8.52,-17.81 -8.52,-30.19 0,-11.87 3.06,-21.98 9.16,-30.32 6.11,-8.35 14.45,-14.67 25.03,-18.97 10.58,-4.3 22.49,-6.45 35.74,-6.45 21.85,0 39.23,5.08 52.13,15.23 12.9,10.15 19.96,24.78 21.16,43.87l-61.68 0c-0.86,-9.64 -4.82,-14.45 -11.87,-14.45 -2.41,0 -4.39,0.73 -5.94,2.19 -1.55,1.46 -2.32,3.66 -2.32,6.58 0,3.96 2.19,7.19 6.58,9.68 4.39,2.49 11.23,5.37 20.52,8.64 11.7,4.13 21.38,8.21 29.03,12.26 7.66,4.04 14.36,9.98 20.13,17.81 5.76,7.83 8.64,17.85 8.64,30.07z"/>
 </g>
</svg>
